<?xml version="1.0" standalone="no"?>
<!DOCTYPE svg PUBLIC "-//W3C//DTD SVG 20010904//EN"
 "http://www.w3.org/TR/2001/REC-SVG-20010904/DTD/svg10.dtd">
<svg version="1.0" xmlns="http://www.w3.org/2000/svg"
 width="1080.000000pt" height="1080.000000pt" viewBox="0 0 1080.000000 1080.000000"
 preserveAspectRatio="xMidYMid meet">
<metadata>
Created by potrace 1.11, written by Peter Selinger 2001-2013
</metadata>
<g transform="translate(0.000000,1080.000000) scale(0.100000,-0.100000)"
fill="#000000" stroke="none">
<path d="M8767 10110 c-271 -24 -522 -105 -850 -273 -212 -110 -385 -156 -615
-164 l-143 -6 123 -42 c1149 -393 2084 -1268 2634 -2464 54 -115 54 -116 54
-71 1 62 24 108 119 235 106 142 222 375 290 580 87 266 117 464 108 725 -15
409 -141 712 -412 985 -358 360 -825 537 -1308 495z"/>
<path d="M1659 10055 c-372 -61 -692 -231 -960 -512 -97 -101 -168 -202 -230
-326 -101 -200 -146 -384 -156 -632 -9 -247 21 -457 98 -690 50 -151 221 -499
329 -668 93 -145 120 -211 129 -315 l6 -73 48 123 c61 154 202 444 297 608
401 695 959 1268 1617 1661 222 133 528 275 830 385 l52 19 -192 0 c-178 0
-200 2 -300 28 -130 34 -251 82 -372 147 -191 102 -406 182 -615 227 -146 31
-444 41 -581 18z"/>
<path d="M7285 6450 c-330 -28 -661 -175 -842 -372 -193 -212 -303 -492 -303
-773 0 -183 47 -359 150 -567 105 -211 234 -390 616 -849 71 -86 169 -204 218
-263 267 -324 505 -515 768 -616 145 -56 353 -87 508 -76 590 41 982 395 1110
1001 27 128 38 399 21 540 -48 406 -193 747 -445 1044 -197 233 -532 526 -765
671 -313 194 -694 290 -1036 260z m135 -680 c230 -67 386 -309 350 -544 -36
-243 -253 -426 -505 -426 -372 0 -620 381 -460 706 115 234 359 338 615 264z"/>
<path d="M3255 6349 c-238 -31 -520 -137 -719 -272 -225 -152 -509 -407 -684
-614 -453 -536 -554 -1358 -236 -1905 151 -258 375 -423 681 -500 76 -20 114
-23 283 -23 214 0 277 11 436 75 242 97 480 297 764 645 63 77 182 221 264
320 315 379 457 600 544 847 114 321 71 656 -123 953 -60 93 -217 242 -310
296 -267 154 -588 217 -900 178z m505 -579 c208 -61 350 -253 350 -474 0 -140
-45 -249 -145 -348 -125 -126 -317 -178 -490 -133 -369 97 -507 533 -254 809
140 153 334 206 539 146z"/>
<path d="M5240 4411 c-282 -62 -503 -241 -573 -466 -30 -97 -29 -234 2 -325
68 -195 241 -354 466 -429 114 -38 195 -51 315 -51 243 0 473 93 625 251 129
135 189 302 167 461 -37 258 -244 465 -548 549 -114 31 -336 36 -454 10z"/>
<path d="M4382 2889 c-50 -15 -107 -77 -121 -133 -21 -83 13 -152 129 -267
194 -190 443 -316 745 -376 139 -28 503 -25 641 5 149 32 245 66 379 132 141
70 261 157 365 266 84 88 110 133 110 192 0 123 -105 206 -226 180 -41 -9 -58
-22 -133 -100 -171 -179 -380 -283 -638 -318 -130 -18 -383 -8 -490 19 -218
55 -355 131 -506 281 -89 89 -115 110 -151 119 -51 13 -59 13 -104 0z"/>
</g>
</svg>
